#!OML:ASF E:\emotionWalksFemale\Project 1\Capture day 1\Session 1\Female1.ASF
:FULLY-SPECIFIED
:DEGREES
161
root 8.88102 14.1628 22.9469 191.804 1.02459 -178.554
lowerback 15.8989 1.38753 1.69965
upperback -3.14016 2.20993 -0.00223506
thorax -12.3798 0.910992 -1.54587
lowerneck -6.70721 -2.47568 -6.1992
upperneck -5.90668 -3.17328 6.58707
head -0.499335 -1.6697 3.14847
rclavicle 2.71093e-014 -1.78906e-015
rhumerus -36.8275 8.71563 -91.5494
rradius 27.7293
rwrist 31.5725
rhand -12.9198 -57.7917
rfingers 7.12502
rthumb 13.1705 -87.3557
lclavicle 2.71093e-014 -1.78906e-015
lhumerus -38.2228 2.51034 86.3467
lradius 26.6092
lwrist -24.4098
lhand -5.65593 -32.3768
lfingers 7.12502
lthumb 20.1631 -3.40322
rfemur -33.2181 8.24355 26.2837
rtibia 58.3736
rfoot -33.4257 -27.9686
rtoes 3.85735
lfemur -37.1381 -9.54289 -19.2384
ltibia 62.3887
lfoot -36.2151 10.7992
ltoes -32.0715
162
root 8.89477 14.115 22.9422 192.385 0.46656 -178.701
lowerback 15.5391 1.24188 1.4861
upperback -3.24293 1.97099 0.0389703
thorax -12.3 0.817976 -1.30844
lowerneck -7.02047 -2.50422 -6.11006
upperneck -6.00629 -3.22339 6.41781
head -0.479269 -1.70086 3.06895
rclavicle 2.11209e-015 -7.55382e-015
rhumerus -36.2943 8.71112 -91.3746
rradius 27.5503
rwrist 31.2556
rhand -12.971 -57.9419
rfingers 7.12502
rthumb 13.1211 -87.5091
lclavicle 2.11209e-015 -7.55382e-015
lhumerus -37.687 2.67587 86.3536
lradius 26.3947
lwrist -24.733
lhand -5.82183 -32.5031
lfingers 7.12502
lthumb 20.0036 -3.51272
rfemur -34.1437 7.93025 26.261
rtibia 59.0089
rfoot -33.4602 -28.2408
rtoes 3.73174
lfemur -38.3218 -9.73792 -19.1964
ltibia 63.1474
lfoot -35.8835 10.7797
ltoes -32.5819
163
root 8.89081 14.0925 22.8719 192.182 0.922898 -178.592
lowerback 15.3259 1.39514 1.55286
upperback -3.12702 2.17822 -0.00676732
thorax -12.0305 0.913506 -1.44004
lowerneck -7.25045 -2.51013 -6.21952
upperneck -5.96552 -3.21974 6.54363
head -0.422795 -1.69764 3.12926
rclavicle -1.46479e-014 -3.8763e-015
rhumerus -36.0518 8.21652 -91.1184
rradius 27.5207
rwrist 31.8747
rhand -12.8897 -57.5576
rfingers 7.12502
rthumb 13.1995 -87.1198
lclavicle -1.46479e-014 -3.8763e-015
lhumerus -37.4716 2.90181 86.191
lradius 26.2148
lwrist -25.316
lhand -5.86705 -32.6974
lfingers 7.12502
lthumb 19.9602 -3.70254
rfemur -33.774 8.4022 26.3512
rtibia 59.4142
rfoot -33.5847 -28.5578
rtoes 3.0543
lfemur -37.984 -9.21442 -19.3752
ltibia 63.7513
lfoot -36.0674 10.8978
ltoes -32.4959
164
root 8.89968 14.0588 22.8412 192.479 0.827197 -178.6
lowerback 15.09 1.42297 1.47032
upperback -3.1468 2.19531 -0.00578211
thorax -11.9154 0.929661 -1.38906
lowerneck -7.82373 -2.59283 -6.38619
upperneck -5.86546 -3.30976 6.64279
head -0.281464 -1.73973 3.1835
rclavicle 5.96354e-015 -5.36719e-015
rhumerus -35.4436 7.47675 -90.6939
rradius 27.3981
rwrist 32.5801
rhand -13.1186 -57.3024
rfingers 7.12502
rthumb 12.9789 -86.8786
lclavicle 5.96354e-015 -5.36719e-015
lhumerus -36.9909 3.19013 86.0619
lradius 25.9474
lwrist -26.1341
lhand -5.77398 -32.9585
lfingers 7.12502
lthumb 20.0496 -3.97297
rfemur -34.2083 8.59089 26.384
rtibia 59.9489
rfoot -33.6539 -28.9835
rtoes 2.98336
lfemur -38.5561 -9.02729 -19.3861
ltibia 64.4225
lfoot -36.0319 11.1378
ltoes -33.4059
165
root 8.90419 14.0206 22.8069 192.763 0.921951 -178.54
lowerback 14.7101 1.43224 1.32415
upperback -3.236 2.17888 0.0287534
thorax -11.7983 0.936141 -1.25382
lowerneck -8.10443 -2.56689 -6.37204
upperneck -5.69468 -3.26813 6.61662
head -0.182018 -1.71513 3.16778
rclavicle -4.24902e-015 3.67752e-015
rhumerus -34.9544 7.24999 -90.5506
rradius 27.1254
rwrist 32.9446
rhand -13.5654 -57.7682
rfingers 7.12502
rthumb 12.5481 -87.3713
lclavicle -4.24902e-015 3.67752e-015
lhumerus -36.8362 3.64525 85.7833
lradius 25.7869
lwrist -26.8462
lhand -5.82534 -33.273
lfingers 7.12502
lthumb 20.0002 -4.28225
rfemur -34.5784 8.91922 26.4299
rtibia 60.3504
rfoot -33.7477 -29.3329
rtoes 2.73635
lfemur -39.0003 -8.67929 -19.3738
ltibia 64.9762
lfoot -35.9977 11.4776
ltoes -34.2544
166
root 8.9095 13.9821 22.769 192.934 0.887202 -178.415
lowerback 14.4473 1.40621 1.31613
upperback -3.32016 2.14605 0.0753732
thorax -11.7407 0.924772 -1.18358
lowerneck -8.44952 -2.58159 -6.3678
upperneck -5.39436 -3.27302 6.56302
head -0.0268748 -1.70919 3.1415
rclavicle -1.46604e-015 1.73937e-015
rhumerus -34.5243 7.12275 -90.452
rradius 26.6504
rwrist 33.114
rhand -13.0912 -58.3354
rfingers 7.12502
rthumb 13.0053 -87.91
lclavicle -1.46604e-015 1.73937e-015
lhumerus -36.7053 4.13134 85.4972
lradius 25.5641
lwrist -27.7213
lhand -5.99314 -33.5793
lfingers 7.12502
lthumb 19.8389 -4.57181
rfemur -34.7513 9.04759 26.6232
rtibia 60.6795
rfoot -34.0909 -29.6508
rtoes 2.94274
lfemur -39.2643 -8.43371 -19.2362
ltibia 65.4283
lfoot -36.1181 11.2701
ltoes -33.7951
167
root 8.91558 13.9607 22.7219 193.084 0.804662 -178.235
lowerback 14.8998 1.34333 1.37472
upperback -3.887 2.09769 0.0898642
thorax -12.6582 0.884252 -1.21506
lowerneck -8.40255 -2.56664 -6.29548
upperneck -4.89326 -3.23682 6.56707
head 0.123511 -1.67462 3.12709
rclavicle -7.01958e-015 5.46658e-015
rhumerus -35.0698 6.60922 -90.421
rradius 26.2604
rwrist 33.8853
rhand -11.5372 -58.8525
rfingers 7.12502
rthumb 14.5029 -88.3256
lclavicle -7.01958e-015 5.46658e-015
lhumerus -37.3891 4.85172 84.9187
lradius 25.3104
lwrist -29.0542
lhand -6.52709 -34.1154
lfingers 7.12502
lthumb 19.3256 -5.0557
rfemur -34.7412 9.13574 26.9017
rtibia 60.7813
rfoot -34.3608 -29.7919
rtoes 4.16883
lfemur -39.3408 -8.31332 -18.9863
ltibia 65.617
lfoot -36.466 10.8997
ltoes -33.211
